<mxfile host="app.diagrams.net" agent="Mozilla/5.0 (Windows NT 10.0; Win64; x64) AppleWebKit/537.36 (KHTML, like Gecko) Chrome/130.0.0.0 Safari/537.36" version="24.8.4" pages="3">
  <diagram name="Page-1" id="IobsoV1vJLjerMy_9B1s">
    <mxGraphModel dx="1461" dy="725" grid="1" gridSize="10" guides="1" tooltips="1" connect="1" arrows="1" fold="1" page="1" pageScale="1" pageWidth="850" pageHeight="1100" background="#FFFFFF" math="0" shadow="0">
      <root>
        <mxCell id="0" />
        <mxCell id="1" parent="0" />
        <mxCell id="QXwQxBVrAvd-_dKG0uEY-6" value="" style="rounded=1;whiteSpace=wrap;html=1;fillColor=#FFFFFF;strokeColor=#000000;fillStyle=auto;" parent="1" vertex="1">
          <mxGeometry x="140" y="60" width="120" height="60" as="geometry" />
        </mxCell>
        <mxCell id="NSbk75Btp8Qz1frN2HEx-5" value="" style="edgeStyle=orthogonalEdgeStyle;rounded=1;orthogonalLoop=1;jettySize=auto;html=1;fontFamily=Helvetica;fontSize=12;fontColor=default;spacing=2;textShadow=0;strokeWidth=2;targetPerimeterSpacing=0;jumpStyle=none;" parent="1" source="QXwQxBVrAvd-_dKG0uEY-10" target="QXwQxBVrAvd-_dKG0uEY-12" edge="1">
          <mxGeometry relative="1" as="geometry" />
        </mxCell>
        <mxCell id="QXwQxBVrAvd-_dKG0uEY-10" value="&lt;div&gt;Captured&lt;/div&gt;image" style="text;align=center;verticalAlign=middle;rounded=1;strokeWidth=1;fontColor=default;labelBackgroundColor=default;whiteSpace=wrap;html=1;" parent="1" vertex="1">
          <mxGeometry x="30" y="77.5" width="70" height="25" as="geometry" />
        </mxCell>
        <mxCell id="QXwQxBVrAvd-_dKG0uEY-11" value="&lt;font&gt;Sharpened Image&lt;/font&gt;" style="text;html=1;align=center;verticalAlign=middle;whiteSpace=wrap;rounded=1;fontColor=default;" parent="1" vertex="1">
          <mxGeometry x="300" y="75" width="70" height="30" as="geometry" />
        </mxCell>
        <mxCell id="QXwQxBVrAvd-_dKG0uEY-12" value="&lt;font style=&quot;font-size: 14px;&quot;&gt;Dehazing&lt;/font&gt;" style="text;html=1;align=center;verticalAlign=middle;whiteSpace=wrap;rounded=1;fontColor=default;" parent="1" vertex="1">
          <mxGeometry x="140" y="60" width="120" height="60" as="geometry" />
        </mxCell>
        <mxCell id="QXwQxBVrAvd-_dKG0uEY-13" value="" style="rounded=1;whiteSpace=wrap;html=1;fillColor=default;strokeColor=default;" parent="1" vertex="1">
          <mxGeometry x="140" y="140" width="120" height="60" as="geometry" />
        </mxCell>
        <mxCell id="NSbk75Btp8Qz1frN2HEx-13" value="" style="edgeStyle=orthogonalEdgeStyle;rounded=1;orthogonalLoop=1;jettySize=auto;html=1;fontFamily=Helvetica;fontSize=12;fontColor=default;strokeWidth=2;" parent="1" source="QXwQxBVrAvd-_dKG0uEY-18" target="QXwQxBVrAvd-_dKG0uEY-17" edge="1">
          <mxGeometry relative="1" as="geometry" />
        </mxCell>
        <mxCell id="QXwQxBVrAvd-_dKG0uEY-17" value="&lt;font&gt;Colour reference&lt;/font&gt;" style="text;html=1;align=center;verticalAlign=middle;whiteSpace=wrap;rounded=1;fontColor=default;" parent="1" vertex="1">
          <mxGeometry x="300" y="155" width="70" height="30" as="geometry" />
        </mxCell>
        <mxCell id="QXwQxBVrAvd-_dKG0uEY-18" value="&lt;font style=&quot;font-size: 14px;&quot;&gt;Locate colour checker&lt;/font&gt;" style="text;html=1;align=center;verticalAlign=middle;whiteSpace=wrap;rounded=1;fontColor=default;" parent="1" vertex="1">
          <mxGeometry x="140" y="140" width="120" height="60" as="geometry" />
        </mxCell>
        <mxCell id="NSbk75Btp8Qz1frN2HEx-10" value="" style="edgeStyle=orthogonalEdgeStyle;rounded=1;orthogonalLoop=1;jettySize=auto;html=1;fontFamily=Helvetica;fontSize=12;fontColor=default;spacing=2;textShadow=0;strokeWidth=2;" parent="1" source="QXwQxBVrAvd-_dKG0uEY-19" target="QXwQxBVrAvd-_dKG0uEY-18" edge="1">
          <mxGeometry relative="1" as="geometry" />
        </mxCell>
        <mxCell id="QXwQxBVrAvd-_dKG0uEY-19" value="&lt;font&gt;Sharpened Image&lt;/font&gt;" style="text;html=1;align=center;verticalAlign=middle;whiteSpace=wrap;rounded=1;fontColor=#000000;" parent="1" vertex="1">
          <mxGeometry x="30" y="155" width="70" height="30" as="geometry" />
        </mxCell>
        <mxCell id="QXwQxBVrAvd-_dKG0uEY-20" value="" style="rounded=1;whiteSpace=wrap;html=1;fillColor=default;strokeColor=default;fontColor=default;" parent="1" vertex="1">
          <mxGeometry x="140" y="220" width="120" height="70" as="geometry" />
        </mxCell>
        <mxCell id="NSbk75Btp8Qz1frN2HEx-14" value="" style="edgeStyle=orthogonalEdgeStyle;rounded=1;orthogonalLoop=1;jettySize=auto;html=1;fontFamily=Helvetica;fontSize=12;fontColor=default;strokeWidth=2;" parent="1" source="QXwQxBVrAvd-_dKG0uEY-24" target="QXwQxBVrAvd-_dKG0uEY-23" edge="1">
          <mxGeometry relative="1" as="geometry" />
        </mxCell>
        <mxCell id="QXwQxBVrAvd-_dKG0uEY-23" value="&lt;font&gt;Enhanced&lt;/font&gt;&lt;div&gt;&lt;font&gt;image&lt;/font&gt;&lt;/div&gt;" style="text;html=1;align=center;verticalAlign=middle;whiteSpace=wrap;rounded=1;fontColor=default;" parent="1" vertex="1">
          <mxGeometry x="300" y="240" width="70" height="30" as="geometry" />
        </mxCell>
        <mxCell id="QXwQxBVrAvd-_dKG0uEY-24" value="&lt;font&gt;&lt;span style=&quot;font-size: 14px;&quot;&gt;Colour&lt;/span&gt;&lt;/font&gt;&lt;div&gt;&lt;font&gt;&lt;span style=&quot;font-size: 14px;&quot;&gt;calibration&lt;/span&gt;&lt;/font&gt;&lt;/div&gt;" style="text;html=1;align=center;verticalAlign=middle;whiteSpace=wrap;rounded=1;fontColor=default;" parent="1" vertex="1">
          <mxGeometry x="140" y="220" width="120" height="70" as="geometry" />
        </mxCell>
        <mxCell id="NSbk75Btp8Qz1frN2HEx-8" value="" style="edgeStyle=orthogonalEdgeStyle;rounded=1;orthogonalLoop=1;jettySize=auto;html=1;fontFamily=Helvetica;fontSize=12;fontColor=default;entryX=0.004;entryY=0.214;entryDx=0;entryDy=0;entryPerimeter=0;spacing=2;textShadow=0;strokeWidth=2;" parent="1" source="QXwQxBVrAvd-_dKG0uEY-25" target="QXwQxBVrAvd-_dKG0uEY-24" edge="1">
          <mxGeometry relative="1" as="geometry" />
        </mxCell>
        <mxCell id="QXwQxBVrAvd-_dKG0uEY-25" value="&lt;font&gt;Sharpened Image&lt;/font&gt;" style="text;html=1;align=center;verticalAlign=middle;whiteSpace=wrap;rounded=1;fontColor=default;" parent="1" vertex="1">
          <mxGeometry x="30" y="220" width="70" height="30" as="geometry" />
        </mxCell>
        <mxCell id="NSbk75Btp8Qz1frN2HEx-7" value="" style="edgeStyle=orthogonalEdgeStyle;rounded=1;orthogonalLoop=1;jettySize=auto;html=1;fontFamily=Helvetica;fontSize=12;fontColor=default;entryX=0.001;entryY=0.786;entryDx=0;entryDy=0;entryPerimeter=0;spacing=2;textShadow=0;strokeWidth=2;" parent="1" source="QXwQxBVrAvd-_dKG0uEY-27" target="QXwQxBVrAvd-_dKG0uEY-24" edge="1">
          <mxGeometry relative="1" as="geometry">
            <mxPoint x="130" y="300" as="targetPoint" />
            <Array as="points" />
          </mxGeometry>
        </mxCell>
        <mxCell id="QXwQxBVrAvd-_dKG0uEY-27" value="&lt;span style=&quot;&quot;&gt;Colour reference&lt;/span&gt;" style="text;html=1;align=center;verticalAlign=middle;whiteSpace=wrap;rounded=1;fontColor=default;" parent="1" vertex="1">
          <mxGeometry x="30" y="260" width="70" height="30" as="geometry" />
        </mxCell>
        <mxCell id="QXwQxBVrAvd-_dKG0uEY-31" value="" style="rounded=1;whiteSpace=wrap;html=1;fillColor=default;strokeColor=default;" parent="1" vertex="1">
          <mxGeometry x="140" y="310" width="120" height="60" as="geometry" />
        </mxCell>
        <mxCell id="NSbk75Btp8Qz1frN2HEx-15" value="" style="edgeStyle=orthogonalEdgeStyle;rounded=1;orthogonalLoop=1;jettySize=auto;html=1;fontFamily=Helvetica;fontSize=12;fontColor=default;strokeWidth=2;entryX=0;entryY=0.5;entryDx=0;entryDy=0;exitX=0.5;exitY=0;exitDx=0;exitDy=0;" parent="1" source="QXwQxBVrAvd-_dKG0uEY-35" target="QXwQxBVrAvd-_dKG0uEY-34" edge="1">
          <mxGeometry relative="1" as="geometry">
            <mxPoint x="280" y="330" as="sourcePoint" />
            <Array as="points" />
          </mxGeometry>
        </mxCell>
        <mxCell id="QXwQxBVrAvd-_dKG0uEY-34" value="Accuracy&lt;div&gt;pameter&lt;/div&gt;" style="text;html=1;align=center;verticalAlign=middle;whiteSpace=wrap;rounded=1;fontColor=default;" parent="1" vertex="1">
          <mxGeometry x="300" y="325" width="70" height="30" as="geometry" />
        </mxCell>
        <mxCell id="QXwQxBVrAvd-_dKG0uEY-35" value="&lt;font style=&quot;font-size: 14px;&quot;&gt;Image&lt;/font&gt;&lt;div&gt;&lt;font style=&quot;font-size: 14px;&quot;&gt;validation&lt;/font&gt;&lt;/div&gt;" style="text;html=1;align=center;verticalAlign=middle;whiteSpace=wrap;rounded=1;direction=south;fontColor=default;" parent="1" vertex="1">
          <mxGeometry x="140" y="310" width="120" height="60" as="geometry" />
        </mxCell>
        <mxCell id="NSbk75Btp8Qz1frN2HEx-6" value="" style="edgeStyle=orthogonalEdgeStyle;rounded=1;orthogonalLoop=1;jettySize=auto;html=1;fontFamily=Helvetica;fontSize=12;fontColor=default;spacing=2;textShadow=0;strokeWidth=2;entryX=0.5;entryY=1;entryDx=0;entryDy=0;" parent="1" source="QXwQxBVrAvd-_dKG0uEY-36" target="QXwQxBVrAvd-_dKG0uEY-35" edge="1">
          <mxGeometry relative="1" as="geometry">
            <mxPoint x="120" y="320" as="targetPoint" />
          </mxGeometry>
        </mxCell>
        <mxCell id="NSbk75Btp8Qz1frN2HEx-12" value="" style="edgeStyle=orthogonalEdgeStyle;rounded=1;orthogonalLoop=1;jettySize=auto;html=1;fontFamily=Helvetica;fontSize=12;fontColor=default;strokeWidth=2;" parent="1" source="QXwQxBVrAvd-_dKG0uEY-12" target="QXwQxBVrAvd-_dKG0uEY-11" edge="1">
          <mxGeometry relative="1" as="geometry" />
        </mxCell>
        <mxCell id="QXwQxBVrAvd-_dKG0uEY-36" value="&lt;font&gt;Enhanced&lt;/font&gt;&lt;div&gt;&lt;font&gt;image&lt;/font&gt;&lt;/div&gt;" style="text;html=1;align=center;verticalAlign=middle;whiteSpace=wrap;rounded=1;fontColor=default;" parent="1" vertex="1">
          <mxGeometry x="30" y="325" width="70" height="30" as="geometry" />
        </mxCell>
      </root>
    </mxGraphModel>
  </diagram>
  <diagram id="fDfxLC1SGNE2sOJeaQMV" name="Page-2">
    <mxGraphModel dx="842" dy="500" grid="1" gridSize="10" guides="1" tooltips="1" connect="1" arrows="1" fold="1" page="1" pageScale="1" pageWidth="850" pageHeight="1100" background="#ffffff" math="0" shadow="0">
      <root>
        <mxCell id="0" />
        <mxCell id="1" parent="0" />
        <mxCell id="SXDZkuJHsTkl63pZokzQ-1" value="&lt;span style=&quot;background-color: rgb(255, 255, 255);&quot;&gt;Dehazing&lt;/span&gt;" style="swimlane;fontStyle=0;childLayout=stackLayout;horizontal=1;startSize=26;fillColor=none;horizontalStack=0;resizeParent=1;resizeParentMax=0;resizeLast=0;collapsible=1;marginBottom=0;whiteSpace=wrap;html=1;rounded=0;align=center;verticalAlign=middle;fontFamily=Helvetica;fontSize=12;fontColor=default;" vertex="1" parent="1">
          <mxGeometry x="320" y="136" width="170" height="104" as="geometry" />
        </mxCell>
        <mxCell id="SXDZkuJHsTkl63pZokzQ-2" value="+ field: type" style="text;strokeColor=none;fillColor=none;align=left;verticalAlign=top;spacingLeft=4;spacingRight=4;overflow=hidden;rotatable=0;points=[[0,0.5],[1,0.5]];portConstraint=eastwest;whiteSpace=wrap;html=1;fontFamily=Helvetica;fontSize=12;fontColor=default;" vertex="1" parent="SXDZkuJHsTkl63pZokzQ-1">
          <mxGeometry y="26" width="170" height="26" as="geometry" />
        </mxCell>
        <mxCell id="SXDZkuJHsTkl63pZokzQ-3" value="+ field: type" style="text;strokeColor=none;fillColor=none;align=left;verticalAlign=top;spacingLeft=4;spacingRight=4;overflow=hidden;rotatable=0;points=[[0,0.5],[1,0.5]];portConstraint=eastwest;whiteSpace=wrap;html=1;fontFamily=Helvetica;fontSize=12;fontColor=default;" vertex="1" parent="SXDZkuJHsTkl63pZokzQ-1">
          <mxGeometry y="52" width="170" height="26" as="geometry" />
        </mxCell>
        <mxCell id="SXDZkuJHsTkl63pZokzQ-4" value="+ field: type" style="text;strokeColor=none;fillColor=none;align=left;verticalAlign=top;spacingLeft=4;spacingRight=4;overflow=hidden;rotatable=0;points=[[0,0.5],[1,0.5]];portConstraint=eastwest;whiteSpace=wrap;html=1;fontFamily=Helvetica;fontSize=12;fontColor=default;" vertex="1" parent="SXDZkuJHsTkl63pZokzQ-1">
          <mxGeometry y="78" width="170" height="26" as="geometry" />
        </mxCell>
        <mxCell id="RanygT8lk50nQO3kCyZe-9" value="&lt;span style=&quot;font-size: 14px;&quot;&gt;Locate colour&amp;nbsp;&lt;/span&gt;&lt;span style=&quot;font-size: 14px; background-color: initial;&quot;&gt;checker&lt;/span&gt;" style="swimlane;fontStyle=0;childLayout=stackLayout;horizontal=1;startSize=26;fillColor=none;horizontalStack=0;resizeParent=1;resizeParentMax=0;resizeLast=0;collapsible=1;marginBottom=0;whiteSpace=wrap;html=1;rounded=0;align=center;verticalAlign=middle;fontFamily=Helvetica;fontSize=12;fontColor=default;swimlaneFillColor=none;glass=0;swimlaneLine=1;shadow=0;" vertex="1" parent="1">
          <mxGeometry x="120" y="136" width="170" height="104" as="geometry">
            <mxRectangle x="340" y="120" width="120" height="40" as="alternateBounds" />
          </mxGeometry>
        </mxCell>
        <mxCell id="RanygT8lk50nQO3kCyZe-10" value="+ field: type" style="text;strokeColor=none;fillColor=none;align=left;verticalAlign=top;spacingLeft=4;spacingRight=4;overflow=hidden;rotatable=0;points=[[0,0.5],[1,0.5]];portConstraint=eastwest;whiteSpace=wrap;html=1;fontFamily=Helvetica;fontSize=12;fontColor=default;" vertex="1" parent="RanygT8lk50nQO3kCyZe-9">
          <mxGeometry y="26" width="170" height="26" as="geometry" />
        </mxCell>
        <mxCell id="RanygT8lk50nQO3kCyZe-11" value="+ field: type" style="text;strokeColor=none;fillColor=none;align=left;verticalAlign=top;spacingLeft=4;spacingRight=4;overflow=hidden;rotatable=0;points=[[0,0.5],[1,0.5]];portConstraint=eastwest;whiteSpace=wrap;html=1;fontFamily=Helvetica;fontSize=12;fontColor=default;" vertex="1" parent="RanygT8lk50nQO3kCyZe-9">
          <mxGeometry y="52" width="170" height="26" as="geometry" />
        </mxCell>
        <mxCell id="RanygT8lk50nQO3kCyZe-21" value="+ field: type" style="text;strokeColor=none;fillColor=none;align=left;verticalAlign=top;spacingLeft=4;spacingRight=4;overflow=hidden;rotatable=0;points=[[0,0.5],[1,0.5]];portConstraint=eastwest;whiteSpace=wrap;html=1;fontFamily=Helvetica;fontSize=12;fontColor=default;" vertex="1" parent="RanygT8lk50nQO3kCyZe-9">
          <mxGeometry y="78" width="170" height="26" as="geometry" />
        </mxCell>
        <mxCell id="RanygT8lk50nQO3kCyZe-13" value="&lt;span style=&quot;font-size: 14px;&quot;&gt;Colour&amp;nbsp;&lt;/span&gt;&lt;span style=&quot;font-size: 14px; background-color: initial;&quot;&gt;calibration&lt;/span&gt;" style="swimlane;fontStyle=0;childLayout=stackLayout;horizontal=1;startSize=26;fillColor=none;horizontalStack=0;resizeParent=1;resizeParentMax=0;resizeLast=0;collapsible=1;marginBottom=0;whiteSpace=wrap;html=1;rounded=0;align=center;verticalAlign=middle;fontFamily=Helvetica;fontSize=12;fontColor=default;" vertex="1" parent="1">
          <mxGeometry x="120" y="260" width="170" height="104" as="geometry" />
        </mxCell>
        <mxCell id="RanygT8lk50nQO3kCyZe-14" value="+ field: type" style="text;strokeColor=none;fillColor=none;align=left;verticalAlign=top;spacingLeft=4;spacingRight=4;overflow=hidden;rotatable=0;points=[[0,0.5],[1,0.5]];portConstraint=eastwest;whiteSpace=wrap;html=1;fontFamily=Helvetica;fontSize=12;fontColor=default;" vertex="1" parent="RanygT8lk50nQO3kCyZe-13">
          <mxGeometry y="26" width="170" height="26" as="geometry" />
        </mxCell>
        <mxCell id="RanygT8lk50nQO3kCyZe-15" value="+ field: type" style="text;strokeColor=none;fillColor=none;align=left;verticalAlign=top;spacingLeft=4;spacingRight=4;overflow=hidden;rotatable=0;points=[[0,0.5],[1,0.5]];portConstraint=eastwest;whiteSpace=wrap;html=1;fontFamily=Helvetica;fontSize=12;fontColor=default;" vertex="1" parent="RanygT8lk50nQO3kCyZe-13">
          <mxGeometry y="52" width="170" height="26" as="geometry" />
        </mxCell>
        <mxCell id="RanygT8lk50nQO3kCyZe-16" value="+ field: type" style="text;strokeColor=none;fillColor=none;align=left;verticalAlign=top;spacingLeft=4;spacingRight=4;overflow=hidden;rotatable=0;points=[[0,0.5],[1,0.5]];portConstraint=eastwest;whiteSpace=wrap;html=1;fontFamily=Helvetica;fontSize=12;fontColor=default;" vertex="1" parent="RanygT8lk50nQO3kCyZe-13">
          <mxGeometry y="78" width="170" height="26" as="geometry" />
        </mxCell>
        <mxCell id="RanygT8lk50nQO3kCyZe-17" value="&lt;font style=&quot;font-size: 14px;&quot;&gt;Image&amp;nbsp;&lt;/font&gt;&lt;span style=&quot;font-size: 14px; background-color: initial;&quot;&gt;validation&lt;/span&gt;" style="swimlane;fontStyle=0;childLayout=stackLayout;horizontal=1;startSize=26;fillColor=none;horizontalStack=0;resizeParent=1;resizeParentMax=0;resizeLast=0;collapsible=1;marginBottom=0;whiteSpace=wrap;html=1;rounded=0;align=center;verticalAlign=middle;fontFamily=Helvetica;fontSize=12;fontColor=default;" vertex="1" parent="1">
          <mxGeometry x="320" y="260" width="170" height="104" as="geometry" />
        </mxCell>
        <mxCell id="RanygT8lk50nQO3kCyZe-18" value="+ field: type" style="text;strokeColor=none;fillColor=none;align=left;verticalAlign=top;spacingLeft=4;spacingRight=4;overflow=hidden;rotatable=0;points=[[0,0.5],[1,0.5]];portConstraint=eastwest;whiteSpace=wrap;html=1;fontFamily=Helvetica;fontSize=12;fontColor=default;" vertex="1" parent="RanygT8lk50nQO3kCyZe-17">
          <mxGeometry y="26" width="170" height="26" as="geometry" />
        </mxCell>
        <mxCell id="RanygT8lk50nQO3kCyZe-19" value="+ field: type" style="text;strokeColor=none;fillColor=none;align=left;verticalAlign=top;spacingLeft=4;spacingRight=4;overflow=hidden;rotatable=0;points=[[0,0.5],[1,0.5]];portConstraint=eastwest;whiteSpace=wrap;html=1;fontFamily=Helvetica;fontSize=12;fontColor=default;" vertex="1" parent="RanygT8lk50nQO3kCyZe-17">
          <mxGeometry y="52" width="170" height="26" as="geometry" />
        </mxCell>
        <mxCell id="RanygT8lk50nQO3kCyZe-20" value="+ field: type" style="text;strokeColor=none;fillColor=none;align=left;verticalAlign=top;spacingLeft=4;spacingRight=4;overflow=hidden;rotatable=0;points=[[0,0.5],[1,0.5]];portConstraint=eastwest;whiteSpace=wrap;html=1;fontFamily=Helvetica;fontSize=12;fontColor=default;" vertex="1" parent="RanygT8lk50nQO3kCyZe-17">
          <mxGeometry y="78" width="170" height="26" as="geometry" />
        </mxCell>
      </root>
    </mxGraphModel>
  </diagram>
  <diagram id="0WV-e1CkucXSKFazAjO2" name="Page-3">
    <mxGraphModel dx="605" dy="724" grid="1" gridSize="10" guides="1" tooltips="1" connect="1" arrows="1" fold="1" page="1" pageScale="1" pageWidth="850" pageHeight="1100" math="0" shadow="0">
      <root>
        <mxCell id="0" />
        <mxCell id="1" parent="0" />
        <mxCell id="AqDWA0jNtJOZt3h9N-a1-28" value="Chop of colour board" style="text;html=1;align=center;verticalAlign=middle;whiteSpace=wrap;rounded=0;" parent="1" vertex="1">
          <mxGeometry x="260" y="120" width="70" height="30" as="geometry" />
        </mxCell>
        <mxCell id="8JnmPzc3ZblM6caSnYar-1" value="" style="rounded=1;whiteSpace=wrap;html=1;" vertex="1" parent="1">
          <mxGeometry x="80" y="40" width="180" height="110" as="geometry" />
        </mxCell>
        <mxCell id="8JnmPzc3ZblM6caSnYar-24" value="&lt;div style=&quot;text-align: left;&quot;&gt;&lt;span style=&quot;&quot;&gt;- Chop around prior location&lt;/span&gt;&lt;span style=&quot;&quot;&gt;&lt;/span&gt;&lt;/div&gt;&lt;span style=&quot;&quot;&gt;&lt;div style=&quot;text-align: left;&quot;&gt;&lt;span style=&quot;background-color: initial;&quot;&gt;- Collect features from image&lt;/span&gt;&lt;/div&gt;&lt;/span&gt;&lt;div style=&quot;text-align: left;&quot;&gt;&lt;span style=&quot;&quot;&gt;- Compare template with best features&lt;/span&gt;&lt;span style=&quot;&quot;&gt;&lt;/span&gt;&lt;/div&gt;&lt;div style=&quot;text-align: left;&quot;&gt;&lt;span style=&quot;&quot;&gt;- Extract location of colour board&lt;/span&gt;&lt;span style=&quot;text-align: left;&quot;&gt;&lt;/span&gt;&lt;/div&gt;" style="text;html=1;align=center;verticalAlign=middle;whiteSpace=wrap;rounded=0;" vertex="1" parent="1">
          <mxGeometry x="90" y="60" width="170" height="70" as="geometry" />
        </mxCell>
        <mxCell id="8JnmPzc3ZblM6caSnYar-25" value="Dehazed 12 bit rgb&lt;div&gt;image&lt;/div&gt;" style="text;html=1;align=left;verticalAlign=middle;whiteSpace=wrap;rounded=0;" vertex="1" parent="1">
          <mxGeometry x="20" y="50" width="60" height="30" as="geometry" />
        </mxCell>
        <mxCell id="8JnmPzc3ZblM6caSnYar-26" value="" style="endArrow=classic;html=1;rounded=0;entryX=0;entryY=0.5;entryDx=0;entryDy=0;" edge="1" parent="1" target="8JnmPzc3ZblM6caSnYar-1">
          <mxGeometry width="50" height="50" relative="1" as="geometry">
            <mxPoint x="10" y="95" as="sourcePoint" />
            <mxPoint x="90" as="targetPoint" />
          </mxGeometry>
        </mxCell>
        <mxCell id="8JnmPzc3ZblM6caSnYar-27" value="" style="endArrow=classic;html=1;rounded=0;exitX=1;exitY=0.75;exitDx=0;exitDy=0;" edge="1" parent="1" source="8JnmPzc3ZblM6caSnYar-24">
          <mxGeometry width="50" height="50" relative="1" as="geometry">
            <mxPoint x="280" y="150" as="sourcePoint" />
            <mxPoint x="330" y="113" as="targetPoint" />
          </mxGeometry>
        </mxCell>
        <mxCell id="8JnmPzc3ZblM6caSnYar-28" value="" style="endArrow=classic;html=1;rounded=0;exitX=1;exitY=0.25;exitDx=0;exitDy=0;" edge="1" parent="1" source="8JnmPzc3ZblM6caSnYar-24">
          <mxGeometry width="50" height="50" relative="1" as="geometry">
            <mxPoint x="230" y="50" as="sourcePoint" />
            <mxPoint x="330" y="78" as="targetPoint" />
          </mxGeometry>
        </mxCell>
        <mxCell id="8JnmPzc3ZblM6caSnYar-29" value="colour board location" style="text;html=1;align=center;verticalAlign=middle;whiteSpace=wrap;rounded=0;" vertex="1" parent="1">
          <mxGeometry x="260" y="40" width="70" height="30" as="geometry" />
        </mxCell>
      </root>
    </mxGraphModel>
  </diagram>
</mxfile>
